<mxfile host="app.diagrams.net" agent="Mozilla/5.0 (Macintosh; Intel Mac OS X 10_15_7) AppleWebKit/537.36 (KHTML, like Gecko) Chrome/138.0.0.0 Safari/537.36" version="28.0.7">
  <diagram name="第 1 页" id="0tX6m9n3SJ8otf20YL_W">
    <mxGraphModel dx="1444" dy="1875" grid="1" gridSize="10" guides="1" tooltips="1" connect="1" arrows="1" fold="1" page="1" pageScale="1" pageWidth="827" pageHeight="1169" math="0" shadow="0">
      <root>
        <mxCell id="0" />
        <mxCell id="1" parent="0" />
        <mxCell id="6UPcCzY6v26LzIOFKwxG-1" value="&lt;div&gt;vllm/v1/executor/abstract.py&lt;/div&gt;&lt;div&gt;Model Executor 初始化&lt;/div&gt;&lt;div&gt;Executor类 -&amp;gt; 返回executor_class&lt;/div&gt;" style="rounded=1;whiteSpace=wrap;html=1;" vertex="1" parent="1">
          <mxGeometry x="500" y="240" width="250" height="90" as="geometry" />
        </mxCell>
        <mxCell id="6UPcCzY6v26LzIOFKwxG-4" value="vllm/v1/engine/core_client.py&lt;div&gt;&lt;br&gt;&lt;/div&gt;&lt;div&gt;子类：EngineCoreClient&lt;/div&gt;&lt;div&gt;子类：MPClient&lt;/div&gt;&lt;div&gt;AsyncMPClient -&amp;gt; __init__&lt;/div&gt;" style="rounded=1;whiteSpace=wrap;html=1;" vertex="1" parent="1">
          <mxGeometry x="-170" y="200" width="240" height="120" as="geometry" />
        </mxCell>
        <mxCell id="6UPcCzY6v26LzIOFKwxG-5" value="vllm/v1/engine/utils.py&lt;div&gt;&lt;br&gt;&lt;/div&gt;&lt;div&gt;launch_core_engines&lt;/div&gt;" style="rounded=1;whiteSpace=wrap;html=1;" vertex="1" parent="1">
          <mxGeometry x="-190" y="395" width="240" height="155" as="geometry" />
        </mxCell>
        <mxCell id="6UPcCzY6v26LzIOFKwxG-7" value="&lt;div&gt;vllm/v1/engine/core.py&lt;/div&gt;&lt;div&gt;&lt;br&gt;&lt;/div&gt;&lt;div&gt;子类: EngineCore&lt;/div&gt;EngineCoreProc&lt;div&gt;父类：DPEngineCoreProc&lt;/div&gt;" style="rounded=1;whiteSpace=wrap;html=1;" vertex="1" parent="1">
          <mxGeometry x="220" y="440" width="220" height="110" as="geometry" />
        </mxCell>
        <mxCell id="6UPcCzY6v26LzIOFKwxG-8" value="" style="endArrow=classic;html=1;rounded=0;entryX=0;entryY=0.5;entryDx=0;entryDy=0;" edge="1" parent="1" source="6UPcCzY6v26LzIOFKwxG-5" target="6UPcCzY6v26LzIOFKwxG-7">
          <mxGeometry width="50" height="50" relative="1" as="geometry">
            <mxPoint x="50" y="480" as="sourcePoint" />
            <mxPoint x="100" y="430" as="targetPoint" />
          </mxGeometry>
        </mxCell>
        <mxCell id="6UPcCzY6v26LzIOFKwxG-9" value="run_engine_core初始化类" style="edgeLabel;html=1;align=center;verticalAlign=middle;resizable=0;points=[];" vertex="1" connectable="0" parent="6UPcCzY6v26LzIOFKwxG-8">
          <mxGeometry x="-0.1701" y="1" relative="1" as="geometry">
            <mxPoint as="offset" />
          </mxGeometry>
        </mxCell>
        <mxCell id="6UPcCzY6v26LzIOFKwxG-10" value="" style="endArrow=classic;html=1;rounded=0;exitX=0.5;exitY=1;exitDx=0;exitDy=0;entryX=0.5;entryY=0;entryDx=0;entryDy=0;" edge="1" parent="1" source="6UPcCzY6v26LzIOFKwxG-4" target="6UPcCzY6v26LzIOFKwxG-5">
          <mxGeometry width="50" height="50" relative="1" as="geometry">
            <mxPoint x="-50" y="370" as="sourcePoint" />
            <mxPoint y="320" as="targetPoint" />
          </mxGeometry>
        </mxCell>
        <mxCell id="6UPcCzY6v26LzIOFKwxG-11" value="&lt;span style=&quot;font-size: 12px; text-wrap-mode: wrap; background-color: rgb(236, 236, 236);&quot;&gt;launch_core_engines&amp;nbsp;&lt;/span&gt;启动该方法" style="edgeLabel;html=1;align=center;verticalAlign=middle;resizable=0;points=[];" vertex="1" connectable="0" parent="6UPcCzY6v26LzIOFKwxG-10">
          <mxGeometry x="-0.005" y="2" relative="1" as="geometry">
            <mxPoint as="offset" />
          </mxGeometry>
        </mxCell>
        <mxCell id="6UPcCzY6v26LzIOFKwxG-12" value="vllm/v1/engine/async_llm.py&lt;div&gt;&lt;br&gt;&lt;div&gt;子类: EngineClient&lt;/div&gt;&lt;div&gt;AsyncLLM -&amp;gt; __init__&lt;/div&gt;&lt;/div&gt;" style="rounded=1;whiteSpace=wrap;html=1;" vertex="1" parent="1">
          <mxGeometry x="-120" y="10" width="230" height="115" as="geometry" />
        </mxCell>
        <mxCell id="6UPcCzY6v26LzIOFKwxG-13" value="vllm/v1/engine/llm_engine.py" style="rounded=1;whiteSpace=wrap;html=1;" vertex="1" parent="1">
          <mxGeometry x="-370" y="10" width="210" height="100" as="geometry" />
        </mxCell>
        <mxCell id="6UPcCzY6v26LzIOFKwxG-14" value="" style="endArrow=classic;html=1;rounded=0;exitX=0.5;exitY=1;exitDx=0;exitDy=0;entryX=0.528;entryY=-0.005;entryDx=0;entryDy=0;entryPerimeter=0;" edge="1" parent="1" source="6UPcCzY6v26LzIOFKwxG-12" target="6UPcCzY6v26LzIOFKwxG-4">
          <mxGeometry width="50" height="50" relative="1" as="geometry">
            <mxPoint x="-140" y="200" as="sourcePoint" />
            <mxPoint x="-90" y="150" as="targetPoint" />
          </mxGeometry>
        </mxCell>
        <mxCell id="6UPcCzY6v26LzIOFKwxG-15" value="初始化该类 (make_async_mp_client)" style="edgeLabel;html=1;align=center;verticalAlign=middle;resizable=0;points=[];" vertex="1" connectable="0" parent="6UPcCzY6v26LzIOFKwxG-14">
          <mxGeometry x="-0.1885" relative="1" as="geometry">
            <mxPoint y="1" as="offset" />
          </mxGeometry>
        </mxCell>
        <mxCell id="6UPcCzY6v26LzIOFKwxG-17" value="" style="endArrow=classic;html=1;rounded=0;exitX=0.5;exitY=1;exitDx=0;exitDy=0;entryX=0.5;entryY=0;entryDx=0;entryDy=0;" edge="1" parent="1" source="6UPcCzY6v26LzIOFKwxG-16" target="6UPcCzY6v26LzIOFKwxG-12">
          <mxGeometry width="50" height="50" relative="1" as="geometry">
            <mxPoint x="120" y="60" as="sourcePoint" />
            <mxPoint x="170" y="10" as="targetPoint" />
          </mxGeometry>
        </mxCell>
        <mxCell id="6UPcCzY6v26LzIOFKwxG-18" value="初始化该类" style="edgeLabel;html=1;align=center;verticalAlign=middle;resizable=0;points=[];" vertex="1" connectable="0" parent="6UPcCzY6v26LzIOFKwxG-17">
          <mxGeometry x="-0.1266" y="-1" relative="1" as="geometry">
            <mxPoint as="offset" />
          </mxGeometry>
        </mxCell>
        <mxCell id="6UPcCzY6v26LzIOFKwxG-23" value="&lt;b&gt;&lt;font style=&quot;font-size: 18px;&quot;&gt;V0.10.0&lt;/font&gt;&lt;/b&gt;" style="text;html=1;align=center;verticalAlign=middle;resizable=0;points=[];autosize=1;strokeColor=none;fillColor=none;" vertex="1" parent="1">
          <mxGeometry x="230" y="-280" width="90" height="40" as="geometry" />
        </mxCell>
        <mxCell id="6UPcCzY6v26LzIOFKwxG-26" value="" style="group" vertex="1" connectable="0" parent="1">
          <mxGeometry x="-190" y="-210" width="430" height="140" as="geometry" />
        </mxCell>
        <mxCell id="6UPcCzY6v26LzIOFKwxG-24" value="&lt;span style=&quot;color: rgb(0, 0, 0); font-family: Helvetica; font-size: 12px; font-style: normal; font-variant-ligatures: normal; font-variant-caps: normal; font-weight: 400; letter-spacing: normal; orphans: 2; text-align: center; text-indent: 0px; text-transform: none; widows: 2; word-spacing: 0px; -webkit-text-stroke-width: 0px; white-space: normal; background-color: rgb(236, 236, 236); text-decoration-thickness: initial; text-decoration-style: initial; text-decoration-color: initial; float: none; display: inline !important;&quot;&gt;【API服务启动准备，参数校验、环境配置、网络初始化】&lt;/span&gt;&lt;div&gt;&lt;span style=&quot;color: rgb(0, 0, 0); font-family: Helvetica; font-size: 12px; font-style: normal; font-variant-ligatures: normal; font-variant-caps: normal; font-weight: 400; letter-spacing: normal; orphans: 2; text-align: center; text-indent: 0px; text-transform: none; widows: 2; word-spacing: 0px; -webkit-text-stroke-width: 0px; white-space: normal; background-color: rgb(236, 236, 236); text-decoration-thickness: initial; text-decoration-style: initial; text-decoration-color: initial; float: none; display: inline !important;&quot;&gt;【工具解析插件，客户端配置、日志配置、密钥配置等】&lt;/span&gt;&lt;/div&gt;" style="text;whiteSpace=wrap;html=1;container=0;" vertex="1" parent="6UPcCzY6v26LzIOFKwxG-26">
          <mxGeometry width="340" height="40" as="geometry" />
        </mxCell>
        <mxCell id="6UPcCzY6v26LzIOFKwxG-16" value="vllm/entrypoints/openai/api_server.py&lt;div&gt;run_server方法调用【配置参数 + 启动worker】&amp;nbsp;&lt;/div&gt;&lt;div&gt;run_server_worker方法调用【启动worker】&lt;br&gt;&lt;div&gt;build_async_engine_client方法调用【读取参数 + 启动】&lt;/div&gt;&lt;div&gt;build_async_engine_client_from_engine_args方法&lt;/div&gt;&lt;/div&gt;" style="rounded=1;whiteSpace=wrap;html=1;container=0;" vertex="1" parent="6UPcCzY6v26LzIOFKwxG-26">
          <mxGeometry x="50" y="40" width="310" height="100" as="geometry" />
        </mxCell>
        <mxCell id="6UPcCzY6v26LzIOFKwxG-21" value="全局入口" style="rounded=1;whiteSpace=wrap;html=1;container=0;" vertex="1" parent="6UPcCzY6v26LzIOFKwxG-26">
          <mxGeometry x="310" y="10" width="120" height="60" as="geometry" />
        </mxCell>
        <mxCell id="6UPcCzY6v26LzIOFKwxG-27" value="" style="endArrow=classic;html=1;rounded=0;exitX=0.5;exitY=1;exitDx=0;exitDy=0;entryX=0.5;entryY=0;entryDx=0;entryDy=0;" edge="1" parent="1" source="6UPcCzY6v26LzIOFKwxG-16" target="6UPcCzY6v26LzIOFKwxG-13">
          <mxGeometry width="50" height="50" relative="1" as="geometry">
            <mxPoint x="-100" y="50" as="sourcePoint" />
            <mxPoint x="-50" as="targetPoint" />
          </mxGeometry>
        </mxCell>
        <mxCell id="6UPcCzY6v26LzIOFKwxG-28" value="初始化同步模型" style="edgeLabel;html=1;align=center;verticalAlign=middle;resizable=0;points=[];" vertex="1" connectable="0" parent="6UPcCzY6v26LzIOFKwxG-27">
          <mxGeometry x="-0.0126" y="-1" relative="1" as="geometry">
            <mxPoint as="offset" />
          </mxGeometry>
        </mxCell>
        <mxCell id="6UPcCzY6v26LzIOFKwxG-29" value="1. 分词器初始化 -&amp;gt; Tokenizer&lt;div&gt;2. 请求处理器初始化 -&amp;gt; Processor&lt;/div&gt;&lt;div&gt;3. 输出处理器初始化 -&amp;gt; OutputProcessor&lt;/div&gt;&lt;div&gt;4. 引擎核心EngineCore初始化 -&amp;gt; EngineCore&lt;/div&gt;&lt;div&gt;5.日志管理器初始化 -&amp;gt; StatLoggerManager&lt;/div&gt;&lt;div&gt;6. 输出处理任务启动 -&amp;gt;&amp;nbsp;_run_output_handler&lt;/div&gt;&lt;div&gt;&lt;span style=&quot;white-space: pre;&quot;&gt;&#x9;&lt;/span&gt;循环接收处理完成的请求&lt;br&gt;&lt;/div&gt;" style="text;html=1;align=left;verticalAlign=middle;resizable=0;points=[];autosize=1;strokeColor=none;fillColor=none;" vertex="1" parent="1">
          <mxGeometry x="120" y="12.5" width="270" height="110" as="geometry" />
        </mxCell>
        <mxCell id="6UPcCzY6v26LzIOFKwxG-31" value="ZMQ通信上下文初始化&lt;div&gt;推理引擎初始化（本地引擎启动进程）&lt;/div&gt;&lt;div&gt;创建ZMQ通信套接字&lt;/div&gt;&lt;div&gt;确保客户端管理的引擎范围，正常启动并建立通信&lt;/div&gt;" style="text;html=1;align=left;verticalAlign=middle;resizable=0;points=[];autosize=1;strokeColor=none;fillColor=none;" vertex="1" parent="1">
          <mxGeometry x="80" y="225" width="290" height="70" as="geometry" />
        </mxCell>
        <mxCell id="6UPcCzY6v26LzIOFKwxG-32" value="" style="endArrow=classic;html=1;rounded=0;exitX=0.5;exitY=1;exitDx=0;exitDy=0;" edge="1" parent="1" source="6UPcCzY6v26LzIOFKwxG-5" target="6UPcCzY6v26LzIOFKwxG-33">
          <mxGeometry width="50" height="50" relative="1" as="geometry">
            <mxPoint x="-40" y="670" as="sourcePoint" />
            <mxPoint x="-40" y="620" as="targetPoint" />
          </mxGeometry>
        </mxCell>
        <mxCell id="6UPcCzY6v26LzIOFKwxG-33" value="数据并行协调器&lt;div&gt;DPCoordinator&lt;/div&gt;&lt;div&gt;&lt;br&gt;&lt;/div&gt;&lt;div&gt;Ray后端引擎启动&lt;/div&gt;" style="rounded=1;whiteSpace=wrap;html=1;" vertex="1" parent="1">
          <mxGeometry x="-90" y="630" width="210" height="110" as="geometry" />
        </mxCell>
        <mxCell id="6UPcCzY6v26LzIOFKwxG-34" value="Scheduler 初始化&lt;div&gt;&lt;div&gt;&lt;br&gt;&lt;/div&gt;&lt;/div&gt;" style="rounded=1;whiteSpace=wrap;html=1;" vertex="1" parent="1">
          <mxGeometry x="500" y="470" width="250" height="80" as="geometry" />
        </mxCell>
        <mxCell id="6UPcCzY6v26LzIOFKwxG-35" value="&lt;div&gt;vllm/v1/executor/multiproc_executor.py&lt;/div&gt;&lt;div&gt;&lt;br&gt;&lt;/div&gt;MultiprocExecutor&lt;div&gt;&lt;br&gt;&lt;/div&gt;" style="rounded=1;whiteSpace=wrap;html=1;" vertex="1" parent="1">
          <mxGeometry x="827" y="240" width="220" height="85" as="geometry" />
        </mxCell>
        <mxCell id="6UPcCzY6v26LzIOFKwxG-36" value="engine_core.run_busy_loop()&lt;div&gt;_process_input_queue&lt;/div&gt;&lt;div&gt;_process_engine_step&lt;/div&gt;" style="rounded=1;whiteSpace=wrap;html=1;" vertex="1" parent="1">
          <mxGeometry x="220" y="585" width="220" height="55" as="geometry" />
        </mxCell>
        <mxCell id="6UPcCzY6v26LzIOFKwxG-37" value="" style="endArrow=classic;html=1;rounded=0;exitX=0.5;exitY=1;exitDx=0;exitDy=0;entryX=0.5;entryY=0;entryDx=0;entryDy=0;" edge="1" parent="1" source="6UPcCzY6v26LzIOFKwxG-7" target="6UPcCzY6v26LzIOFKwxG-36">
          <mxGeometry width="50" height="50" relative="1" as="geometry">
            <mxPoint x="360" y="570" as="sourcePoint" />
            <mxPoint x="410" y="520" as="targetPoint" />
          </mxGeometry>
        </mxCell>
        <mxCell id="6UPcCzY6v26LzIOFKwxG-39" value="循环执行方法" style="edgeLabel;html=1;align=center;verticalAlign=middle;resizable=0;points=[];" vertex="1" connectable="0" parent="6UPcCzY6v26LzIOFKwxG-37">
          <mxGeometry x="-0.3605" relative="1" as="geometry">
            <mxPoint as="offset" />
          </mxGeometry>
        </mxCell>
        <mxCell id="6UPcCzY6v26LzIOFKwxG-38" value="退出信号处理设置&lt;div&gt;引擎核心初始化&lt;/div&gt;&lt;div&gt;运行引擎主循环&lt;/div&gt;" style="text;html=1;align=left;verticalAlign=middle;resizable=0;points=[];autosize=1;strokeColor=none;fillColor=none;" vertex="1" parent="1">
          <mxGeometry x="280" y="383" width="120" height="60" as="geometry" />
        </mxCell>
        <mxCell id="6UPcCzY6v26LzIOFKwxG-41" value="&lt;div&gt;工作进程创建与初始化&lt;/div&gt;&lt;div&gt;&lt;br&gt;&lt;/div&gt;WorkerProc&lt;div&gt;WorkerWrapperBase&lt;/div&gt;&lt;div&gt;Worker&lt;/div&gt;&lt;div&gt;ModelRunner&lt;/div&gt;&lt;div&gt;execute_model&lt;br&gt;&lt;div&gt;&lt;br&gt;&lt;/div&gt;&lt;/div&gt;" style="rounded=1;whiteSpace=wrap;html=1;" vertex="1" parent="1">
          <mxGeometry x="1110" y="270" width="210" height="140" as="geometry" />
        </mxCell>
        <mxCell id="6UPcCzY6v26LzIOFKwxG-42" value="&lt;div&gt;&lt;span style=&quot;background-color: transparent; color: light-dark(rgb(0, 0, 0), rgb(255, 255, 255));&quot;&gt;KV 缓存初始化&lt;/span&gt;&lt;/div&gt;&lt;div&gt;&lt;pre style=&quot;outline: none; -webkit-font-smoothing: antialiased; box-sizing: border-box; -webkit-tap-highlight-color: rgba(0, 0, 0, 0); font-family: ui-monospace, SFMono-Regular, &amp;quot;SF Mono&amp;quot;, Menlo, Consolas, &amp;quot;Liberation Mono&amp;quot;, monospace; overflow-wrap: normal; --code-text_v3: #000000d9; --code-doc_v3: #00000073; --code-Link_v3: #2f74ff; --code-number_v3: #e54595; --code-keycontrol_v3: #9952e1; --code-function_v3: #ff5d4d; --code-variable_v3: #000000d9; --code-parameter_v3: #4da621; --code-attributes_v3: #c70; --code-selection-bg-color: #a9d6ff; background: none 0% 0% / auto repeat scroll padding-box border-box rgba(0, 0, 0, 0); word-break: normal; hyphens: none; line-height: 1.5; tab-size: 4; margin: 0px; overflow: auto; font-size: 13.6px; border-radius: 6px; padding: 0px; overflow-anchor: auto; width: fit-content; text-align: start;&quot; class=&quot;container-_HmLba language-python&quot;&gt;&lt;code style=&quot;outline: none; -webkit-font-smoothing: antialiased; box-sizing: border-box; -webkit-tap-highlight-color: rgba(0, 0, 0, 0); background: transparent; border-radius: 4px; color: rgba(0, 0, 0, 0.85); font-size: 13px; font-family: Menlo, Monaco, Consolas, &amp;quot;Courier New&amp;quot;, monospace; word-break: normal; word-spacing: normal; overflow-wrap: normal; hyphens: none; line-height: 1.5; tab-size: 4; overflow-anchor: auto;&quot; class=&quot;language-python&quot;&gt;_initialize_kv_caches&lt;/code&gt;&lt;/pre&gt;&lt;/div&gt;" style="rounded=1;whiteSpace=wrap;html=1;" vertex="1" parent="1">
          <mxGeometry x="500" y="410" width="250" height="50" as="geometry" />
        </mxCell>
        <mxCell id="6UPcCzY6v26LzIOFKwxG-43" value="结构化输出管理器初始化&lt;div&gt;StructuredOutputManager&lt;/div&gt;" style="rounded=1;whiteSpace=wrap;html=1;" vertex="1" parent="1">
          <mxGeometry x="500" y="340" width="250" height="60" as="geometry" />
        </mxCell>
        <mxCell id="6UPcCzY6v26LzIOFKwxG-44" value="多模态输入缓存初始化&lt;div&gt;MirroredProcessingCache&lt;/div&gt;" style="rounded=1;whiteSpace=wrap;html=1;" vertex="1" parent="1">
          <mxGeometry x="500" y="560" width="250" height="50" as="geometry" />
        </mxCell>
        <mxCell id="6UPcCzY6v26LzIOFKwxG-45" value="批处理队列初始化" style="rounded=1;whiteSpace=wrap;html=1;" vertex="1" parent="1">
          <mxGeometry x="500" y="620" width="250" height="50" as="geometry" />
        </mxCell>
        <mxCell id="6UPcCzY6v26LzIOFKwxG-46" value="" style="endArrow=classic;html=1;rounded=0;exitX=1;exitY=0.5;exitDx=0;exitDy=0;entryX=0;entryY=0.5;entryDx=0;entryDy=0;" edge="1" parent="1" source="6UPcCzY6v26LzIOFKwxG-7" target="6UPcCzY6v26LzIOFKwxG-1">
          <mxGeometry width="50" height="50" relative="1" as="geometry">
            <mxPoint x="480" y="540" as="sourcePoint" />
            <mxPoint x="530" y="490" as="targetPoint" />
          </mxGeometry>
        </mxCell>
        <mxCell id="6UPcCzY6v26LzIOFKwxG-47" value="" style="endArrow=classic;html=1;rounded=0;exitX=1;exitY=0.5;exitDx=0;exitDy=0;entryX=0;entryY=0.5;entryDx=0;entryDy=0;" edge="1" parent="1" source="6UPcCzY6v26LzIOFKwxG-7" target="6UPcCzY6v26LzIOFKwxG-45">
          <mxGeometry width="50" height="50" relative="1" as="geometry">
            <mxPoint x="480" y="540" as="sourcePoint" />
            <mxPoint x="530" y="490" as="targetPoint" />
          </mxGeometry>
        </mxCell>
        <mxCell id="6UPcCzY6v26LzIOFKwxG-49" value="" style="endArrow=classic;html=1;rounded=0;exitX=1;exitY=0.5;exitDx=0;exitDy=0;entryX=0;entryY=0.5;entryDx=0;entryDy=0;" edge="1" parent="1" source="6UPcCzY6v26LzIOFKwxG-1" target="6UPcCzY6v26LzIOFKwxG-35">
          <mxGeometry width="50" height="50" relative="1" as="geometry">
            <mxPoint x="780" y="210" as="sourcePoint" />
            <mxPoint x="830" y="160" as="targetPoint" />
          </mxGeometry>
        </mxCell>
        <mxCell id="6UPcCzY6v26LzIOFKwxG-51" value="资源清理与状态初始化&lt;div&gt;并行配制验证&lt;/div&gt;&lt;div&gt;多进程环境通信初始化&lt;/div&gt;&lt;div&gt;消息队列创建&lt;br&gt;&lt;div&gt;&lt;br&gt;&lt;/div&gt;&lt;/div&gt;" style="rounded=1;whiteSpace=wrap;html=1;" vertex="1" parent="1">
          <mxGeometry x="1110" y="160" width="190" height="90" as="geometry" />
        </mxCell>
        <mxCell id="6UPcCzY6v26LzIOFKwxG-52" value="" style="endArrow=classic;html=1;rounded=0;entryX=0;entryY=0.5;entryDx=0;entryDy=0;" edge="1" parent="1" target="6UPcCzY6v26LzIOFKwxG-51">
          <mxGeometry width="50" height="50" relative="1" as="geometry">
            <mxPoint x="1050" y="280" as="sourcePoint" />
            <mxPoint x="1000" y="410" as="targetPoint" />
          </mxGeometry>
        </mxCell>
        <mxCell id="6UPcCzY6v26LzIOFKwxG-53" value="" style="endArrow=classic;html=1;rounded=0;exitX=1;exitY=0.5;exitDx=0;exitDy=0;entryX=0;entryY=0.5;entryDx=0;entryDy=0;" edge="1" parent="1" source="6UPcCzY6v26LzIOFKwxG-35" target="6UPcCzY6v26LzIOFKwxG-41">
          <mxGeometry width="50" height="50" relative="1" as="geometry">
            <mxPoint x="950" y="460" as="sourcePoint" />
            <mxPoint x="1000" y="410" as="targetPoint" />
          </mxGeometry>
        </mxCell>
      </root>
    </mxGraphModel>
  </diagram>
</mxfile>
